HIERARCHY
ROOT Hips
{
    OFFSET   0.000000   0.000000   0.000000
    CHANNELS 6 Xposition Yposition Zposition Zrotation Xrotation Yrotation
    JOINT Chest
    {
        OFFSET   0.000000   8.007240   0.000000
        CHANNELS 3 Zrotation Xrotation Yrotation
        JOINT Chest2
        {
            OFFSET   0.000000  22.077100   0.000000
            CHANNELS 3 Zrotation Xrotation Yrotation
            JOINT Neck
            {
                OFFSET   0.000000  23.254800   0.000000
                CHANNELS 3 Zrotation Xrotation Yrotation
                JOINT Head
                {
                    OFFSET   0.000000  14.370000   1.956600
                    CHANNELS 3 Zrotation Xrotation Yrotation
                    End Site
                    {
                        OFFSET   0.000000  19.566000   0.000000
                    }
                }
            }
            JOINT LeftCollar
            {
                OFFSET   3.911900  19.017000  -0.467064
                CHANNELS 3 Zrotation Xrotation Yrotation
                JOINT LeftShoulder
                {
                    OFFSET  10.383700   0.000000   0.000000
                    CHANNELS 3 Zrotation Xrotation Yrotation
                    JOINT LeftElbow
                    {
                        OFFSET  26.662100   0.001476   0.000517
                        CHANNELS 3 Zrotation Xrotation Yrotation
                        JOINT LeftWrist
                        {
                            OFFSET  28.869000  -0.000025  -0.000106
                            CHANNELS 3 Zrotation Xrotation Yrotation
                            JOINT LeftFinger0
                            {
                                OFFSET   2.044660  -2.323460   3.252850
                                CHANNELS 3 Zrotation Xrotation Yrotation
                                JOINT LeftFinger01
                                {
                                    OFFSET   3.088130   0.000000   0.000000
                                    CHANNELS 3 Zrotation Xrotation Yrotation
                                    JOINT LeftFinger02
                                    {
                                        OFFSET   2.639460   0.000000   0.000000
                                        CHANNELS 3 Zrotation Xrotation Yrotation
                                        End Site
                                        {
                                            OFFSET   2.582190   0.000000   0.000000
                                        }
                                    }
                                }
                            }
                            JOINT LeftFinger1
                            {
                                OFFSET   8.364480   0.000000   3.252850
                                CHANNELS 3 Zrotation Xrotation Yrotation
                                JOINT LeftFinger11
                                {
                                    OFFSET   4.646930   0.000000   0.000000
                                    CHANNELS 3 Zrotation Xrotation Yrotation
                                    JOINT LeftFinger12
                                    {
                                        OFFSET   2.323460   0.000000   0.000000
                                        CHANNELS 3 Zrotation Xrotation Yrotation
                                        End Site
                                        {
                                            OFFSET   2.273050   0.000000   0.000000
                                        }
                                    }
                                }
                            }
                            JOINT LeftFinger2
                            {
                                OFFSET   8.364490   0.000015   1.078090
                                CHANNELS 3 Zrotation Xrotation Yrotation
                                JOINT LeftFinger21
                                {
                                    OFFSET   5.111620   0.000000   0.000000
                                    CHANNELS 3 Zrotation Xrotation Yrotation
                                    JOINT LeftFinger22
                                    {
                                        OFFSET   2.788160   0.000016   0.000000
                                        CHANNELS 3 Zrotation Xrotation Yrotation
                                        End Site
                                        {
                                            OFFSET   2.727660   0.000000   0.000000
                                        }
                                    }
                                }
                            }
                            JOINT LeftFinger3
                            {
                                OFFSET   7.899780   0.000017  -1.078090
                                CHANNELS 3 Zrotation Xrotation Yrotation
                                JOINT LeftFinger31
                                {
                                    OFFSET   4.646930   0.000000   0.000000
                                    CHANNELS 3 Zrotation Xrotation Yrotation
                                    JOINT LeftFinger32
                                    {
                                        OFFSET   2.323470   0.000000   0.000000
                                        CHANNELS 3 Zrotation Xrotation Yrotation
                                        End Site
                                        {
                                            OFFSET   2.273050   0.000000   0.000000
                                        }
                                    }
                                }
                            }
                            JOINT LeftFinger4
                            {
                                OFFSET   7.435090   0.000000  -3.252850
                                CHANNELS 3 Zrotation Xrotation Yrotation
                                JOINT LeftFinger41
                                {
                                    OFFSET   3.717550   0.000000   0.000000
                                    CHANNELS 3 Zrotation Xrotation Yrotation
                                    JOINT LeftFinger42
                                    {
                                        OFFSET   1.858770   0.000000   0.000000
                                        CHANNELS 3 Zrotation Xrotation Yrotation
                                        End Site
                                        {
                                            OFFSET   1.818440   0.000000   0.000000
                                        }
                                    }
                                }
                            }
                        }
                    }
                }
            }
            JOINT RightCollar
            {
                OFFSET  -3.911900  19.017000  -0.467063
                CHANNELS 3 Zrotation Xrotation Yrotation
                JOINT RightShoulder
                {
                    OFFSET -10.383700   0.000019   0.000000
                    CHANNELS 3 Zrotation Xrotation Yrotation
                    JOINT RightElbow
                    {
                        OFFSET -26.662100   0.001175   0.000102
                        CHANNELS 3 Zrotation Xrotation Yrotation
                        JOINT RightWrist
                        {
                            OFFSET -28.869000   0.000016  -0.000079
                            CHANNELS 3 Zrotation Xrotation Yrotation
                            JOINT RightFinger0
                            {
                                OFFSET  -2.044660  -2.323490   3.252850
                                CHANNELS 3 Zrotation Xrotation Yrotation
                                JOINT RightFinger01
                                {
                                    OFFSET  -3.088140   0.000000   0.000000
                                    CHANNELS 3 Zrotation Xrotation Yrotation
                                    JOINT RightFinger02
                                    {
                                        OFFSET  -2.639460   0.000000   0.000000
                                        CHANNELS 3 Zrotation Xrotation Yrotation
                                        End Site
                                        {
                                            OFFSET  -2.582190   0.000000   0.000000
                                        }
                                    }
                                }
                            }
                            JOINT RightFinger1
                            {
                                OFFSET  -8.364480   0.000000   3.252850
                                CHANNELS 3 Zrotation Xrotation Yrotation
                                JOINT RightFinger11
                                {
                                    OFFSET  -4.646930   0.000000   0.000000
                                    CHANNELS 3 Zrotation Xrotation Yrotation
                                    JOINT RightFinger12
                                    {
                                        OFFSET  -2.323470   0.000000   0.000000
                                        CHANNELS 3 Zrotation Xrotation Yrotation
                                        End Site
                                        {
                                            OFFSET  -2.273050   0.000000   0.000000
                                        }
                                    }
                                }
                            }
                            JOINT RightFinger2
                            {
                                OFFSET  -8.364480   0.000000   1.078090
                                CHANNELS 3 Zrotation Xrotation Yrotation
                                JOINT RightFinger21
                                {
                                    OFFSET  -5.111620   0.000000   0.000000
                                    CHANNELS 3 Zrotation Xrotation Yrotation
                                    JOINT RightFinger22
                                    {
                                        OFFSET  -2.788160   0.000000   0.000000
                                        CHANNELS 3 Zrotation Xrotation Yrotation
                                        End Site
                                        {
                                            OFFSET  -2.727660   0.000000   0.000000
                                        }
                                    }
                                }
                            }
                            JOINT RightFinger3
                            {
                                OFFSET  -7.899780   0.000000  -1.078090
                                CHANNELS 3 Zrotation Xrotation Yrotation
                                JOINT RightFinger31
                                {
                                    OFFSET  -4.646930   0.000000   0.000000
                                    CHANNELS 3 Zrotation Xrotation Yrotation
                                    JOINT RightFinger32
                                    {
                                        OFFSET  -2.323470   0.000000   0.000000
                                        CHANNELS 3 Zrotation Xrotation Yrotation
                                        End Site
                                        {
                                            OFFSET  -2.273050   0.000000   0.000000
                                        }
                                    }
                                }
                            }
                            JOINT RightFinger4
                            {
                                OFFSET  -7.435090   0.000000  -3.252850
                                CHANNELS 3 Zrotation Xrotation Yrotation
                                JOINT RightFinger41
                                {
                                    OFFSET  -3.717550   0.000000   0.000000
                                    CHANNELS 3 Zrotation Xrotation Yrotation
                                    JOINT RightFinger42
                                    {
                                        OFFSET  -1.858770   0.000000   0.000000
                                        CHANNELS 3 Zrotation Xrotation Yrotation
                                        End Site
                                        {
                                            OFFSET  -1.818440   0.000000   0.000000
                                        }
                                    }
                                }
                            }
                        }
                    }
                }
            }
        }
    }
    JOINT LeftHip
    {
        OFFSET   9.783040   0.000000   0.000000
        CHANNELS 3 Zrotation Xrotation Yrotation
        JOINT LeftKnee
        {
            OFFSET   0.000032 -41.789100  -0.002222
            CHANNELS 3 Zrotation Xrotation Yrotation
            JOINT LeftAnkle
            {
                OFFSET   0.000087 -41.133200  -0.000135
                CHANNELS 3 Zrotation Xrotation Yrotation
                JOINT LeftToe
                {
                    OFFSET   0.000000  -6.358960  14.674500
                    CHANNELS 3 Zrotation Xrotation Yrotation
                    End Site
                    {
                        OFFSET   0.000000   0.000000   3.913200
                    }
                }
            }
        }
    }
    JOINT RightHip
    {
        OFFSET  -9.783040   0.000000   0.000000
        CHANNELS 3 Zrotation Xrotation Yrotation
        JOINT RightKnee
        {
            OFFSET   0.000047 -41.789100  -0.000896
            CHANNELS 3 Zrotation Xrotation Yrotation
            JOINT RightAnkle
            {
                OFFSET  -0.000117 -41.133300  -0.000248
                CHANNELS 3 Zrotation Xrotation Yrotation
                JOINT RightToe
                {
                    OFFSET   0.000000  -6.358970  14.674500
                    CHANNELS 3 Zrotation Xrotation Yrotation
                    End Site
                    {
                        OFFSET   0.000000   0.000000   3.913200
                    }
                }
            }
        }
    }
}
MOTION
Frames: 5
Frame Time:   0.016667
  0.513046  89.536000   3.567430  -3.402680 -11.513600  -2.338130   2.761220  10.330500  -0.593991   5.777430  20.618400  -1.746530  -1.988130  -2.076890  -0.064936  -3.278240  -4.196260   6.499690 -11.161700  -2.713350   0.443463 -55.218400  16.493800 -62.219600   9.425010  -1.665190 -48.940100   1.317340 -18.343000   3.864500  45.618900  26.704300 -57.666900 -15.493500   0.000333   0.000164  -2.746730   0.000156  -0.000825 -33.275500   4.751630  -7.189160 -27.469500  -0.001783  -0.008362 -19.228600   0.000304  -0.006582 -28.609900   2.457670  -4.495750 -39.183100  -0.002867  -0.002711 -26.095900  -0.004191  -0.005188 -29.210700  -1.190920   2.126490 -43.891700  -0.004690  -0.002664 -29.231900  -0.001074  -0.009025 -41.018000  -2.013270   2.314800 -61.587500  -0.000624  -0.000901 -41.017300   0.000883  -0.000649   1.447340  -4.951420  13.089800  37.889700   1.487730  51.621800 -14.766300   4.534900  44.282700   2.361990 -45.737900  25.409900 -50.530000  31.194400  60.560200  12.300800   0.000703  -0.000096   1.150420   0.001996  -0.000175  41.338600   3.275120   3.722900  33.909500   0.002016  -0.008479  24.052600  -0.004323  -0.012076  29.849500   2.470390   4.298260  44.913000   0.000579   0.002145  29.912100  -0.002626   0.003372  30.223600   0.627224   1.077080  45.344500  -0.000761   0.004776  30.199400  -0.003617  -0.001220  38.177500  -1.020600  -1.295060  57.284300  -0.025152   0.004269  38.151300  -0.004278   0.000435   4.097450  16.916900   6.286650   1.469210   0.094829  10.038000  -3.617770  -3.516340   2.661580  -0.000000   0.000000  -0.000000   1.048320  10.520700  -5.440560   0.605507   7.418350  -5.506490  -2.024110  -4.669870  -0.499682  -0.000000   0.000000   0.000000
  0.534614  89.537500   3.641970  -3.409340 -11.462100  -2.339180   2.756770  10.333100  -0.568446   5.763640  20.624900  -1.693500  -2.003540  -2.113520  -0.065264  -3.304060  -4.270100   6.448790 -11.186400  -2.689350   0.452010 -55.003800  17.211200 -62.493000   9.472350  -1.393870 -49.292100   1.150340 -18.114200   3.801360  45.664000  26.769700 -57.702400 -15.455900   0.000337   0.000206  -2.727950   0.000161  -0.000766 -33.092700   4.728730  -7.211460 -27.319600  -0.001826  -0.008362 -19.123700   0.000324  -0.006579 -28.583800   2.429090  -4.448490 -38.614900  -0.002842  -0.002686 -25.717600  -0.004185  -0.005160 -28.935100  -1.177700   2.128280 -43.517100  -0.004695  -0.002667 -28.982400  -0.001074  -0.009153 -40.795400  -2.006680   2.322900 -61.253900  -0.000621  -0.000949 -40.795100   0.000969  -0.000731   1.508960  -4.822230  13.228700  38.122900   2.053850  52.081500 -14.974000   4.643410  44.810000   2.567300 -45.762900  25.566600 -50.741200  31.383500  60.737000  12.280200   0.000662  -0.000074   1.140130   0.001997  -0.000142  41.328400   3.197350   3.627760  33.897100   0.002098  -0.008468  24.041200  -0.004323  -0.012879  29.874800   2.412940   4.190140  44.944900   0.000731   0.002208  29.933300  -0.002575   0.003364  30.236800   0.555169   0.950746  45.362400  -0.000646   0.004724  30.211300  -0.003554  -0.001223  38.214200  -1.112600  -1.413590  57.342300  -0.023415   0.004183  38.189900  -0.004406   0.000440   4.094310  16.924400   6.304550   1.458060   0.074039  10.038600  -3.618060  -3.534960   2.661410   0.000000   0.000000   0.000000   1.043850  10.525200  -5.453340   0.604092   7.416920  -5.489950  -2.040460  -4.682340  -0.508122  -0.000000   0.000000  -0.000000
  0.558899  89.537800   3.715410  -3.422030 -11.416300  -2.346040   2.753010  10.336600  -0.544527   5.751600  20.633500  -1.644010  -2.018320  -2.148060  -0.065572  -3.329990  -4.340100   6.409110 -11.202600  -2.692200   0.472268 -54.687600  17.870400 -62.742200   9.521750  -1.204090 -49.629900   1.013020 -17.938400   3.772100  45.671100  26.734700 -57.561800 -15.412600   0.000330   0.000178  -2.706300   0.000165  -0.000715 -32.940300   4.661130  -7.156090 -27.189600  -0.001854  -0.008356 -19.032800   0.000333  -0.006581 -28.565900   2.407410  -4.412390 -38.273300  -0.002804  -0.002656 -25.490100  -0.004195  -0.005133 -28.794800  -1.193290   2.165100 -43.286500  -0.004697  -0.002669 -28.828800  -0.001080  -0.009286 -40.620000  -2.019920   2.353850 -60.992400  -0.000627  -0.000998 -40.621000   0.001047  -0.000823   1.572310  -4.715630  13.354300  38.215100   2.575070  52.472100 -15.099000   4.670610  45.313200   2.812600 -45.539700  25.694500 -51.049600  31.653300  61.013900  12.202700   0.000619  -0.000030   1.101400   0.002000  -0.000138  41.302000   3.197430   3.629120  33.876500   0.002177  -0.008402  24.022100  -0.004317  -0.013665  29.857200   2.412720   4.191380  44.919200   0.000886   0.002276  29.916100  -0.002533   0.003365  30.220000   0.562698   0.963653  45.337000  -0.000521   0.004672  30.194400  -0.003491  -0.001227  38.185400  -1.125840  -1.437220  57.299300  -0.022107   0.004107  38.161300  -0.004527   0.000434   4.091050  16.923500   6.323750   1.449850   0.083517  10.038900  -3.619730  -3.572810   2.665260  -0.000000   0.000000   0.000000   1.043240  10.536600  -5.466760   0.598888   7.418040  -5.472170  -2.051840  -4.690630  -0.517312  -0.000000   0.000000   0.000000
  0.584904  89.537800   3.787680  -3.437180 -11.373700  -2.354570   2.749480  10.338800  -0.520642   5.739810  20.639000  -1.594470  -2.027170  -2.173710  -0.065858  -3.343710  -4.391690   6.373710 -11.208300  -2.695060   0.486763 -54.328400  18.438200 -62.957600   9.581910  -1.020720 -49.957200   0.877160 -17.850000   3.766070  45.681700  26.671300 -57.381600 -15.387500   0.000324   0.000139  -2.693730   0.000167  -0.000669 -32.818700   4.579800  -7.059070 -27.082600  -0.001884  -0.008350 -18.957900   0.000342  -0.006583 -28.553500   2.389360  -4.381840 -38.064600  -0.002768  -0.002628 -25.351100  -0.004204  -0.005106 -28.751400  -1.219630   2.220600 -43.141400  -0.004698  -0.002672 -28.732200  -0.001090  -0.009418 -40.510600  -2.043250   2.389070 -60.829500  -0.000632  -0.001046 -40.512500   0.001121  -0.000921   1.631210  -4.608230  13.464300  38.239500   3.035800  52.794500 -15.201300   4.665150  45.798200   3.001610 -45.184000  25.756900 -51.241800  31.851400  61.175900  12.057000   0.000572  -0.000000   1.028500   0.002003  -0.000134  41.230800   3.198000   3.638680  33.817000   0.002254  -0.008292  23.967500  -0.004310  -0.014436  29.798300   2.412660   4.200080  44.829600   0.001046   0.002342  29.856500  -0.002493   0.003366  30.160300   0.585295   1.004600  45.247700  -0.000398   0.004620  30.135000  -0.003430  -0.001231  38.094700  -1.127730  -1.440590  57.163000  -0.019781   0.004029  38.070500  -0.004646   0.000425   4.087960  16.921100   6.338790   1.442910   0.109954  10.039800  -3.621750  -3.621890   2.671790   0.000000   0.000000   0.000000   1.042800  10.544700  -5.475790   0.592056   7.424570  -5.454750  -2.060020  -4.699980  -0.527141   0.000000   0.000000   0.000000
  0.612161  89.536400   3.858620  -3.453840 -11.333000  -2.359300   2.745820  10.334500  -0.495543   5.728290  20.631500  -1.542060  -2.028530  -2.182950  -0.066122  -3.343640  -4.409920   6.335660 -11.202200  -2.688000   0.483096 -54.012000  18.866900 -63.114900   9.685050  -0.745065 -50.275400   0.747575 -18.004000   3.789810  45.649900  26.637700 -57.319400 -15.411600   0.000339   0.000125  -2.705780   0.000166  -0.000625 -32.740800   4.501800  -6.960590 -27.011900  -0.001933  -0.008352 -18.908400   0.000357  -0.006583 -28.549300   2.367710  -4.342880 -37.966400  -0.002754  -0.002608 -25.285700  -0.004197  -0.005081 -28.762700  -1.244960   2.270750 -43.076300  -0.004710  -0.002678 -28.688900  -0.001098  -0.009544 -40.491400  -2.070290   2.424310 -60.803000  -0.000614  -0.001090 -40.494800   0.001188  -0.001021   1.682290  -4.478840  13.553700  38.244800   3.406690  53.053000 -15.334200   4.647690  46.256500   3.095290 -44.789700  25.733800 -51.355900  31.900500  61.044200  11.779100   0.000526   0.000000   0.889556   0.002005  -0.000114  41.027100   3.277670   3.756730  33.654500   0.002330  -0.008168  23.818900  -0.004310  -0.015193  29.664500   2.471950   4.328420  44.635400   0.001218   0.002397  29.727200  -0.002452   0.003363  30.030400   0.638034   1.103840  45.054700  -0.000290   0.004566  30.006400  -0.003373  -0.001234  37.911500  -1.062120  -1.364600  56.885900  -0.013952   0.003937  37.886000  -0.004762   0.000422   4.085880  16.905500   6.342130   1.437220   0.168310  10.047200  -3.624540  -3.699260   2.678840  -0.000000   0.000000   0.000000   1.040660  10.538300  -5.477260   0.587995   7.450580  -5.440070  -2.064060  -4.716400  -0.537595  -0.000000   0.000000   0.000000
